<svg t="1708784877028" class="icon" viewBox="0 0 1025 1024" version="1.1" xmlns="http://www.w3.org/2000/svg" p-id="907" width="16" height="16"><path d="M785.44 950.4H249.12a36.8 36.8 0 0 0-1.28 73.6H785.92c20.16 0 36.64-16.16 36.8-36.32v-0.48c-0.48-20-16.8-36.8-37.28-36.8zM973.76 0H51.52C23.04 0 0 23.04 0 51.36v775.2c0 28.32 23.04 51.36 51.52 51.36h922.24c28.32 0 51.36-23.04 51.52-51.36V51.36c0-28.32-23.04-51.36-51.52-51.36zM256.48 643.36h-64v-256h64v256z m192 0h-64v-128h64v128z m192 0h-64v-384h64v384z m192 0h-64v-256h64v256z" fill="#8370F5" p-id="908"></path></svg>